<?xml version="1.0" encoding="UTF-8"?>
<!--  Cashcow – simplified vector icon  -->
<svg
  xmlns="http://www.w3.org/2000/svg"
  viewBox="-40 -25 320 330"
  width="120"
  height="120"
  aria-labelledby="title desc"
>
  <title id="title">Cashcow logo icon</title>
  <desc id="desc">Cartoon cow mascot standing beside the text CA$HCOW</desc>

  <!-- 1. Cow mascot -->
  <g id="cow" transform="translate(35,15)">
    <!-- Horns -->
    <path d="M55 3 l10 -15 10 15" fill="#fafafa" stroke="#666" stroke-width="2"/>
    <path d="M105 3 l10 -15 10 15" fill="#fafafa" stroke="#666" stroke-width="2"/>

    <!-- Ears -->
    <ellipse cx="47" cy="30" rx="15" ry="10" fill="#c8c8c8"/>
    <ellipse cx="123" cy="30" rx="15" ry="10" fill="#c8c8c8"/>

    <!-- Head -->
    <circle cx="85" cy="55" r="40" fill="#fafafa" stroke="#666" stroke-width="2"/>

    <!-- Face / muzzle -->
    <ellipse cx="85" cy="80" rx="42" ry="28" fill="#f4d3c8" stroke="#666" stroke-width="2"/>
    <circle cx="70" cy="78" r="4" fill="#754d3c"/>
    <circle cx="99" cy="78" r="4" fill="#754d3c"/>
    <circle cx="70" cy="50" r="5" fill="#333"/>
    <circle cx="99" cy="50" r="5" fill="#333"/>

    <!-- Body -->
    <rect x="45" y="110" width="80" height="60" rx="6" fill="#1a2433"/>

    <!-- WWW + globe -->
    <circle cx="85" cy="140" r="16" fill="#1a2433" stroke="#3db4ff" stroke-width="2"/>
    <text x="85" y="145" font-family="Arial,Helvetica,sans-serif"
          font-size="12" text-anchor="middle" fill="#d9f2ff">WWW</text>

    <!-- Legs -->
    <rect x="55" y="175" width="16" height="55" fill="#fafafa" stroke="#666" stroke-width="2"/>
    <rect x="94" y="175" width="16" height="55" fill="#fafafa" stroke="#666" stroke-width="2"/>

    <!-- Spots -->
    <path d="M70 185 q10 10 0 20 q-10 10 -20 0 q10 -10 20 -20" fill="#3c3c3c"/>
    <path d="M102 165 q15 15 0 25 q-15 10 -25 0 q15 -10 25 -25" fill="#3c3c3c"/>

    <!-- Hooves -->
    <rect x="49" y="225" width="28" height="18" rx="4" fill="#3c3c3c"/>
    <rect x="88" y="225" width="28" height="18" rx="4" fill="#3c3c3c"/>
  </g>
</svg>
