<?xml version="1.0" standalone="no"?>
<!DOCTYPE svg PUBLIC "-//W3C//DTD SVG 20010904//EN"
 "http://www.w3.org/TR/2001/REC-SVG-20010904/DTD/svg10.dtd">
<svg version="1.0" xmlns="http://www.w3.org/2000/svg"
 width="79.000000pt" height="85.000000pt" viewBox="0 0 79.000000 85.000000"
 preserveAspectRatio="xMidYMid meet">

<g transform="translate(0.000000,85.000000) scale(0.100000,-0.100000)"
fill="red" stroke="none">
<path d="M165 841 c-64 -17 -117 -56 -144 -108 -17 -33 -13 -108 10 -204 21
-84 21 -88 4 -165 -10 -43 -20 -113 -22 -154 -4 -67 -2 -79 19 -110 13 -19 44
-46 68 -60 44 -24 52 -25 267 -28 265 -4 309 4 366 67 48 54 55 95 32 201 -29
132 -30 190 -5 283 14 50 20 96 17 120 -8 57 -48 111 -104 138 -46 23 -59 24
-263 26 -118 1 -228 -2 -245 -6z m333 -103 c19 -19 14 -42 -15 -70 -62 -58
-155 -79 -168 -38 -10 30 18 66 73 94 52 28 92 32 110 14z m90 -168 c33 -12
52 -36 52 -64 0 -27 -60 -75 -113 -91 -64 -19 -81 -5 -31 24 54 32 33 45 -79
49 -59 3 -88 0 -82 -6 6 -5 57 -44 115 -87 132 -97 170 -133 170 -162 0 -32
-35 -51 -115 -63 -189 -27 -365 7 -365 71 0 46 82 100 151 99 23 -1 22 -2 -11
-30 -29 -25 -32 -31 -20 -40 14 -9 180 -15 180 -6 0 2 -49 45 -109 94 -131
109 -167 152 -152 181 10 19 48 34 111 45 47 8 265 -2 298 -14z"/>
</g>
</svg>
